<svg xmlns="http://www.w3.org/2000/svg" width="132" height="34" viewBox="0 0 132 34" fill="none" role="img" aria-label="Replo">
  <text x="0" y="26" font-family="Pretendard, -apple-system, 'Apple SD Gothic Neo', system-ui, sans-serif" font-size="30" font-weight="800" letter-spacing="-1.2" fill="#111827">replo</text>
  <g transform="translate(104 6)">
    <path d="M11 0.5c.4 3.6 1.4 5.5 4.9 6.1v.6c-3.5.6-4.5 2.5-4.9 6.1h-.6c-.4-3.6-1.4-5.5-4.9-6.1v-.6c3.5-.6 4.5-2.5 4.9-6.1z" fill="#6D5DF6"/>
    <path d="M4.5 15.5c.2 1.7.7 2.6 2.3 2.9v.3c-1.6.3-2.1 1.2-2.3 2.9h-.3c-.2-1.7-.7-2.6-2.3-2.9v-.3c1.6-.3 2.1-1.2 2.3-2.9z" fill="#A99BFF"/>
  </g>
</svg>
